<svg width="157" height="44" viewBox="0 0 157 44" fill="none" xmlns="http://www.w3.org/2000/svg">
<path d="M32.9021 10.8306C31.6775 10.9211 30.1152 11.1985 28.9208 11.5424C28.0642 11.7837 27.1232 12.1094 27.0809 12.1758C27.0689 12.1999 28.7277 13.4486 30.7787 14.9567C32.8237 16.4647 34.6394 17.8401 34.8143 18.0211C35.6649 18.9018 35.9786 20.3254 35.5865 21.4957C35.3935 22.0748 35.2004 22.4066 34.8204 22.8228C33.7466 23.9991 31.9852 24.3007 30.5797 23.5527C30.3806 23.4502 28.0401 21.7792 25.3738 19.8489C21.2598 16.8629 20.5178 16.3441 20.4213 16.3984C20.2644 16.4768 19.1122 17.7436 18.5392 18.4614C17.7007 19.5171 16.6028 21.2423 16.7114 21.3389C16.7416 21.369 18.9675 23.0038 21.6519 24.9824C24.3423 26.9549 26.6647 28.7043 26.8215 28.8672C27.467 29.5307 27.7988 30.3572 27.7988 31.2982C27.7988 31.9617 27.6902 32.39 27.3705 32.9993C26.5079 34.6522 24.3302 35.3338 22.6834 34.4712C22.4843 34.3626 20.5238 32.9691 18.3341 31.3646C14.9077 28.8611 14.3528 28.4751 14.3166 28.5716C14.214 28.837 14.1296 30.6527 14.1658 31.6601C14.2019 32.8304 14.2743 33.5181 14.4493 34.5496C14.576 35.2916 14.8474 36.4558 14.9319 36.6127C15.0042 36.7514 18.6417 39.4177 19.2691 39.7977C20.2765 40.407 21.688 40.8956 22.9066 41.0645C23.166 41.1007 23.7933 41.1309 24.3061 41.1309C25.4401 41.1309 26.351 40.9861 27.3705 40.6483C30.7606 39.5142 33.1615 36.7997 33.9397 33.2165C34.0543 32.6917 34.0724 32.4021 34.0784 31.3465V30.0978L34.2835 30.0616C35.4598 29.8384 37.0101 29.1386 38.0899 28.3424C42.4935 25.0729 43.3682 18.8535 40.0504 14.4379C39.3506 13.5149 38.5604 12.8273 36.4129 11.283L35.7252 10.7883L34.4524 10.8004C33.7466 10.8064 33.0529 10.8185 32.9021 10.8306Z" fill="white"/>
<path fill-rule="evenodd" clip-rule="evenodd" d="M19.1242 0.057039C18.6295 0.171653 18.0987 0.485333 17.7006 0.889498C17.0853 1.51686 16.7957 2.21057 16.7957 3.06716C16.7957 3.91169 17.0792 4.61143 17.6644 5.21466C17.9539 5.51025 22.7918 9.1236 25.6753 11.1927L25.9528 11.3978L26.55 11.1565C28.6009 10.3421 30.7786 9.85954 33.1191 9.69667C33.644 9.66048 34.0843 9.62428 34.0903 9.61825C34.1084 9.60619 23.3649 1.74005 21.9895 0.756787C21.3742 0.316428 21.1691 0.207847 20.6866 0.0751359C20.3487 -0.0153487 19.4861 -0.0274134 19.1242 0.057039ZM11.2036 10.9332C10.0997 11.2046 9.12851 12.2 8.89928 13.3099C8.68815 14.3173 8.98374 15.3307 9.70158 16.0727C9.92478 16.308 11.1614 17.2611 12.9047 18.5399L15.7399 20.6211L15.8606 20.3979C16.0898 19.9816 17.1877 18.3529 17.5436 17.9065C18.0081 17.3214 18.5811 16.6639 19.1301 16.0908L19.5704 15.6384L16.5663 13.4607C14.9195 12.2663 13.4537 11.2288 13.3149 11.1564C12.7479 10.8728 11.8551 10.7763 11.2036 10.9332ZM1.0211 24.0291C1.34081 22.7986 2.28789 21.9359 3.57277 21.7067C4.14584 21.6042 5.08688 21.7791 5.5755 22.0747C5.69011 22.1471 7.47567 23.438 9.54476 24.9461C12.3618 27.0091 13.2908 27.7149 13.2727 27.7933C13.1702 28.1251 13.0435 29.9227 13.0435 31.0568C13.0375 32.4864 13.1099 33.3611 13.333 34.6701C13.4115 35.1467 13.4718 35.5509 13.4597 35.5569C13.4115 35.6051 2.00437 27.1539 1.75704 26.8885C1.0573 26.1405 0.767744 25.0124 1.0211 24.0291Z" fill="white"/>
<path d="M139.113 21.2551V30.3594H140.046H140.98V27.9238V25.4804L141.54 24.8423C142.062 24.2509 142.108 24.212 142.21 24.3443C142.264 24.4221 143.229 25.7917 144.342 27.3869C145.454 28.9898 146.412 30.3127 146.458 30.3282C146.513 30.3516 147.026 30.3516 147.618 30.3438L148.676 30.3205L146.186 26.8966C144.809 25.0135 143.618 23.3794 143.54 23.2627L143.385 23.0526L145.462 20.7726C146.606 19.5198 147.664 18.3604 147.812 18.1969L148.092 17.909H146.964H145.844L143.704 20.4458C142.529 21.8387 141.439 23.1537 141.291 23.3716L141.019 23.7607L140.996 17.9557L140.98 12.1507H140.046H139.113V21.2551Z" fill="white"/>
<path d="M54.2945 12.4696C53.4385 12.5319 52.3335 12.6797 52.1468 12.7498C52.0534 12.7809 52.0378 14.0804 52.0378 21.3716V29.9546L52.7226 30.0246C53.9754 30.1414 57.3604 30.0947 58.1541 29.9468C59.7026 29.6589 60.6208 29.2387 61.4768 28.4216C61.9514 27.9625 62.146 27.7135 62.395 27.2155C63.5778 24.811 62.7685 22.1965 60.4885 21.0526C60.115 20.8658 59.7415 20.7102 59.6637 20.7102C59.3369 20.7102 59.4691 20.5624 60.0372 20.2745C61.1499 19.7142 61.9592 18.7026 62.2316 17.5276C62.3638 16.9596 62.2938 15.8935 62.0759 15.3254C61.2278 13.0533 58.7143 12.135 54.2945 12.4696ZM58.0529 14.6329C58.6754 14.8741 59.1034 15.2243 59.3835 15.7301C59.6092 16.1347 59.6248 16.2048 59.6248 16.9751C59.6248 17.6754 59.6014 17.8466 59.4458 18.1657C59.0801 18.9049 58.2552 19.5041 57.3137 19.7142C57.088 19.7609 56.3955 19.8076 55.7729 19.8076L54.6446 19.8153L54.6213 17.1541L54.6057 14.4928L54.8547 14.4617C54.9948 14.4384 55.6718 14.4306 56.3566 14.4384C57.4382 14.4539 57.6561 14.4773 58.0529 14.6329ZM57.6016 21.9163C59.4691 22.3988 60.4185 23.7139 60.1539 25.4491C59.9438 26.7875 59.0956 27.6357 57.6249 27.9859C57.1347 28.1026 54.987 28.1571 54.7302 28.0559C54.6213 28.017 54.6057 27.6668 54.6057 24.92C54.6057 23.2158 54.6291 21.7996 54.668 21.7607C54.7614 21.6673 57.088 21.7841 57.6016 21.9163Z" fill="white"/>
<path d="M97.0226 13.139C97.0226 13.2168 97.9798 17.1153 99.147 21.7998L101.264 30.3205H102.221H103.186L104.578 25.1847C106.259 18.9517 106.672 17.3643 106.897 16.1738C106.998 15.668 107.084 15.2711 107.107 15.2867C107.123 15.3022 107.201 15.738 107.286 16.2594C107.535 17.7845 107.769 18.8272 109.201 24.71C109.948 27.7837 110.555 30.3127 110.555 30.3282C110.555 30.3438 110.99 30.3594 111.52 30.3594H112.484L112.539 30.1415C112.593 29.9081 117.153 13.3647 117.216 13.139C117.254 13.0145 117.192 13.0067 116.305 13.0223L115.348 13.0456L114.578 15.9637C113.185 21.3018 112.196 25.247 111.916 26.6165C111.66 27.8927 111.605 28.095 111.543 28.0172C111.527 28.0016 111.457 27.5814 111.379 27.0912C111.177 25.7761 110.687 23.5973 109.341 18.0569C108.679 15.3334 108.142 13.0845 108.142 13.0534C108.142 13.0301 107.707 13.0067 107.185 13.0067H106.22L104.968 17.7301C103.341 23.8619 102.913 25.566 102.649 26.8966C102.532 27.4958 102.415 28.0172 102.384 28.0483C102.353 28.0794 102.275 27.7681 102.197 27.3479C101.979 26.1185 101.372 23.4183 100.112 18.0413L98.9369 13.0067H97.972C97.1082 13.0067 97.0149 13.0223 97.0226 13.139Z" fill="white"/>
<path d="M80.0512 14.4854C79.8178 14.5632 79.2653 14.7421 78.8295 14.8822L78.0358 15.1312L78.0125 16.2673L77.9891 17.4034L77.1176 17.4267L76.2383 17.4501V18.415V19.3877H77.1331H78.028V23.2162C78.028 27.4337 78.0591 27.7216 78.4949 28.6243C78.7906 29.2157 79.3586 29.7448 79.9578 29.9782C80.5025 30.1883 81.8798 30.2662 82.6736 30.1261C83.4828 29.986 83.4439 30.0561 83.3972 28.9511C83.3583 28.0407 83.3505 27.9862 83.2027 28.0018C83.1171 28.0173 82.8681 28.0407 82.6424 28.0718C81.732 28.1885 81.1328 27.9006 80.7982 27.1691C80.6426 26.8345 80.6348 26.6789 80.6115 23.0994L80.5881 19.3877H82.0744H83.5529V18.415V17.4423H82.0744H80.5959V15.886C80.5959 15.0301 80.5726 14.3297 80.5414 14.3375C80.5025 14.3375 80.2846 14.4075 80.0512 14.4854Z" fill="white"/>
<path d="M89.9725 17.201C87.9415 17.5278 86.3852 18.8506 85.646 20.866C85.2491 21.9632 85.1635 22.4924 85.1558 23.8619C85.1558 25.3637 85.3114 26.1107 85.8561 27.2391C86.1518 27.8382 86.323 28.0795 86.8443 28.6008C87.568 29.3245 88.2061 29.698 89.1943 29.9859C89.7546 30.1493 89.9725 30.1649 91.2953 30.1571C92.5092 30.1571 92.8983 30.126 93.4741 29.9937C94.5169 29.7525 95.0849 29.519 95.0382 29.3634C95.0149 29.2856 94.9215 28.8732 94.8281 28.4296C94.6803 27.776 94.6258 27.6437 94.5246 27.6826C93.7387 28.025 91.9101 28.3129 91.1008 28.2195C89.7935 28.0639 88.9064 27.5892 88.3539 26.7566C87.9882 26.1963 87.7626 25.5427 87.7003 24.8657L87.6536 24.2899L91.6533 24.2743L95.653 24.251L95.6763 23.2861C95.7463 20.1891 94.4001 17.9169 92.1435 17.3255C91.5988 17.1854 90.4861 17.1232 89.9725 17.201ZM91.6299 19.2319C92.5482 19.6366 93.2018 20.796 93.2018 22.0099V22.4223H90.4394C87.2957 22.4223 87.5836 22.5002 87.7937 21.6831C88.1438 20.3291 88.922 19.3876 89.9336 19.0997C90.3927 18.9674 91.1631 19.0296 91.6299 19.2319Z" fill="white"/>
<path d="M64.2626 17.6524C65.6788 21.3719 68.6124 29.3946 68.6124 29.5658C68.6124 29.8926 68.0677 30.9275 67.6008 31.5111C67.0484 32.1803 66.278 32.8029 65.5621 33.1452C64.9863 33.4176 64.9551 33.4487 64.9941 33.651C65.0719 34.0946 65.5854 35.6509 65.6555 35.6509C65.8656 35.6509 66.8538 35.2073 67.3596 34.8961C69.1883 33.7522 70.4022 31.838 71.9974 27.5582C72.332 26.6789 75.5379 17.5201 75.5379 17.4656C75.5379 17.45 74.9154 17.45 74.1606 17.4578L72.7833 17.4812L71.8651 20.6716C71.3671 22.4224 70.7757 24.5234 70.5578 25.3404C70.0909 27.0679 70.0987 27.0446 70.052 26.9979C70.0287 26.9745 69.873 26.4454 69.7018 25.8151C69.5306 25.1848 69.2038 24.0798 68.9704 23.3717C68.7369 22.6558 68.2078 21.0295 67.7954 19.7533L67.0484 17.4423H65.6166H64.177L64.2626 17.6524Z" fill="white"/>
<path d="M122.406 17.7923C121.713 17.9401 120.709 18.4381 120.141 18.9128C118.453 20.3212 117.659 22.858 118.064 25.5348C118.523 28.6241 120.67 30.5928 123.565 30.5928C126.405 30.5928 128.475 28.8964 129.207 25.9628C129.417 25.1146 129.394 22.8347 129.168 21.9943C128.413 19.2318 126.444 17.66 123.752 17.6833C123.277 17.6833 122.67 17.7378 122.406 17.7923ZM124.896 19.3096C126.071 19.7532 126.981 20.9671 127.347 22.609C127.534 23.4416 127.503 25.0135 127.293 25.7994C126.919 27.1845 126.071 28.3595 125.098 28.8342C122.958 29.8691 120.694 28.484 120.048 25.7449C119.846 24.9045 119.83 23.5039 120.009 22.6635C120.406 20.7648 121.495 19.4575 122.927 19.154C123.464 19.0451 124.382 19.1151 124.896 19.3096Z" fill="white"/>
<path d="M135.844 17.8546C134.918 18.1658 134.109 18.944 133.657 19.9322C133.564 20.1423 133.455 20.3213 133.416 20.3213C133.385 20.3213 133.354 20.0178 133.354 19.6365C133.354 19.263 133.331 18.7261 133.299 18.4304L133.253 17.909H132.436H131.626L131.673 18.1503C131.696 18.2825 131.72 21.0839 131.72 24.3754V30.3594H132.646H133.58L133.611 26.4842C133.634 23.0837 133.657 22.5623 133.774 22.1499C134.117 20.9827 134.723 20.1501 135.541 19.7299C135.883 19.5509 136.085 19.512 136.684 19.4809L137.4 19.4498V18.6094C137.4 17.9168 137.377 17.7612 137.276 17.7223C137.019 17.6211 136.326 17.6834 135.844 17.8546Z" fill="white"/>
<path d="M152.107 17.7922C151.36 18.0023 150.761 18.3447 150.287 18.835C149.298 19.8777 149.049 21.3639 149.672 22.5156C150.084 23.2782 151.049 24.0408 152.24 24.5543C153.905 25.2624 154.489 25.7293 154.722 26.5075C154.948 27.3012 154.745 28.0482 154.146 28.5851C153.71 28.982 153.15 29.1454 152.302 29.1454C151.501 29.1454 150.855 28.9898 150.038 28.6163L149.493 28.3595L149.267 28.9898C149.151 29.3399 149.034 29.659 149.018 29.7057C149.003 29.7523 149.189 29.8846 149.438 29.9936C150.201 30.336 151.003 30.5227 151.913 30.5694C154.847 30.725 156.807 29.0831 156.597 26.6398C156.481 25.2158 155.687 24.2509 153.975 23.4571C152.411 22.7257 152.139 22.5778 151.812 22.3055C151.353 21.9086 151.174 21.5273 151.174 20.9359C151.174 19.7843 151.991 19.0762 153.306 19.0762C153.928 19.0762 154.644 19.2552 155.212 19.5431L155.671 19.7765L155.889 19.2085C156.006 18.905 156.13 18.5859 156.169 18.5159C156.247 18.3525 156.029 18.228 155.189 17.9323C154.473 17.6833 152.792 17.6055 152.107 17.7922Z" fill="white"/>
<path d="M114.912 38.0243V41.1758H115.223H115.535V38.0243V34.8728H115.223H114.912V38.0243Z" fill="white"/>
<path d="M150.294 34.9273C150.263 34.9506 150.24 36.3746 150.24 38.0788V41.1758H150.551H150.862V40.3743C150.87 39.6195 150.878 39.565 151.088 39.3238L151.306 39.0748L152.037 40.1253L152.769 41.1758H153.142C153.422 41.1758 153.5 41.1524 153.461 41.0746C153.43 41.0279 153.041 40.4832 152.598 39.8763C152.162 39.2615 151.796 38.7324 151.796 38.6935C151.796 38.6312 152.138 38.2422 153.15 37.145L153.383 36.896H152.994H152.613L151.757 37.9153L150.901 38.9347L150.878 36.9038L150.862 34.8728H150.605C150.458 34.8728 150.318 34.8961 150.294 34.9273Z" fill="white"/>
<path d="M102.773 38.1799V41.1758H103.084H103.395V38.1799V35.1841H103.084H102.773V38.1799Z" fill="white"/>
<path d="M104.174 35.4564V35.7288H105.03H105.886V38.4523V41.1758H106.197H106.508V38.4523V35.7288H107.403H108.298V35.4564V35.1841H106.236H104.174V35.4564Z" fill="white"/>
<path d="M111.387 36.9271C110.92 37.0516 110.835 37.1372 110.897 37.394C110.944 37.5885 110.959 37.5963 111.161 37.4873C111.496 37.3162 112.064 37.2539 112.383 37.3628C112.725 37.4796 112.967 37.8297 112.967 38.2344V38.5301H112.632C112.196 38.5301 111.449 38.7246 111.13 38.9269C110.601 39.2537 110.368 39.9385 110.593 40.5143C110.912 41.3625 111.963 41.5648 112.757 40.9345L113.045 40.7011L113.091 40.9345C113.138 41.1524 113.169 41.1758 113.41 41.1758H113.683L113.651 39.5572C113.613 37.8142 113.574 37.6352 113.177 37.2228C112.788 36.8259 112.165 36.717 111.387 36.9271ZM113.045 39.4249C113.045 40.1642 112.741 40.6388 112.173 40.7867C111.955 40.8489 111.823 40.8412 111.613 40.7556C111.278 40.6155 111.177 40.4287 111.177 39.9696C111.177 39.6662 111.216 39.565 111.41 39.386C111.683 39.137 112.056 39.0125 112.64 39.0047L113.045 38.9969V39.4249Z" fill="white"/>
<path d="M123.721 36.9581C123.223 37.1371 123.223 37.1448 123.277 37.3783L123.324 37.565L123.768 37.4172C124.289 37.246 124.795 37.2693 125.044 37.4872C125.238 37.6662 125.417 38.063 125.417 38.3198C125.417 38.4988 125.386 38.5066 124.826 38.5533C123.604 38.6622 122.927 39.1991 122.927 40.0629C122.927 40.8332 123.402 41.2924 124.172 41.2846C124.624 41.2768 124.974 41.1445 125.215 40.8722C125.417 40.6465 125.495 40.6698 125.495 40.9422C125.495 41.1601 125.518 41.1756 125.791 41.1756H126.079L126.04 39.526C126.001 37.9385 125.993 37.8529 125.806 37.5261C125.697 37.3316 125.495 37.1059 125.355 37.0281C124.982 36.8102 124.235 36.7791 123.721 36.9581ZM125.417 39.5182C125.417 39.9073 125.378 40.1174 125.262 40.2963C124.896 40.9033 123.939 41.0122 123.666 40.4753C123.27 39.7049 123.908 39.0124 125.013 38.9968H125.417V39.5182Z" fill="white"/>
<path d="M131.985 36.8957C131.401 37.0747 131.02 37.7439 131.175 38.2964C131.284 38.6699 131.526 38.8956 132.195 39.2302C132.864 39.5725 132.957 39.6581 133.02 40.0394C133.059 40.2729 133.027 40.3507 132.825 40.553C132.615 40.7553 132.529 40.7865 132.164 40.7865C131.93 40.7865 131.611 40.732 131.456 40.6697C131.175 40.553 131.175 40.553 131.098 40.7475C131.051 40.8643 131.02 40.9654 131.02 40.981C131.02 41.0588 131.354 41.1833 131.736 41.2533C132.88 41.4712 133.798 40.7631 133.619 39.806C133.541 39.3936 133.245 39.0979 132.568 38.7633C131.728 38.3353 131.533 38.0085 131.876 37.5727C132.125 37.2537 132.592 37.2225 133.206 37.4793C133.3 37.5105 133.354 37.4638 133.416 37.3004C133.486 37.0903 133.479 37.0591 133.292 36.9735C133.012 36.849 132.288 36.8023 131.985 36.8957Z" fill="white"/>
<path d="M144.015 36.888C143.408 37.0825 143.027 37.4327 142.754 38.0241C142.536 38.5065 142.505 39.6426 142.708 40.0939C143.385 41.6347 145.462 41.7203 146.209 40.2418C146.777 39.129 146.458 37.6272 145.532 37.0903C145.151 36.8646 144.396 36.7635 144.015 36.888ZM145.229 37.5572C145.602 37.8451 145.82 38.3665 145.836 38.9812C145.844 39.6504 145.657 40.1484 145.252 40.5064C144.988 40.7476 144.894 40.7865 144.552 40.7865C143.999 40.7865 143.688 40.5764 143.416 40.0239C143.011 39.1913 143.19 38.0319 143.789 37.5727C143.937 37.4638 144.124 37.3626 144.209 37.3393C144.497 37.2615 144.98 37.3704 145.229 37.5572Z" fill="white"/>
<path d="M148.878 36.9271C148.637 37.036 148.303 37.3629 148.155 37.6352C148.085 37.7675 148.069 37.713 148.061 37.3395V36.896H147.789H147.517V39.0359V41.1758H147.82H148.124L148.155 39.7518C148.186 38.1955 148.225 38.0321 148.684 37.643C148.847 37.5107 149.018 37.4407 149.197 37.4407C149.454 37.4407 149.462 37.4329 149.462 37.1294C149.462 36.8571 149.439 36.8182 149.291 36.8182C149.19 36.8259 149.011 36.8726 148.878 36.9271Z" fill="white"/>
<path d="M154.893 36.8957C154.364 37.0591 154.053 37.4637 154.053 38.0162C154.053 38.5454 154.286 38.8255 155.033 39.199C155.36 39.3624 155.695 39.5803 155.772 39.6892C155.99 39.9616 155.959 40.2884 155.695 40.5608C155.5 40.7475 155.407 40.7864 155.064 40.7864C154.846 40.7864 154.543 40.732 154.387 40.6697C154.239 40.6074 154.099 40.553 154.092 40.553C154.076 40.553 154.029 40.6541 153.99 40.7864C153.889 41.0666 153.983 41.1366 154.613 41.2533C155.749 41.4712 156.683 40.7631 156.512 39.8215C156.434 39.4169 156.123 39.1056 155.414 38.7399C154.986 38.5142 154.761 38.343 154.691 38.1952C154.551 37.8995 154.66 37.596 154.986 37.4093C155.204 37.277 155.29 37.2692 155.601 37.3392C155.796 37.3781 156.014 37.4404 156.084 37.4715C156.169 37.5104 156.232 37.4637 156.294 37.3237C156.418 37.0591 156.379 37.0124 155.967 36.9035C155.57 36.8023 155.197 36.8023 154.893 36.8957Z" fill="white"/>
<path d="M116.469 36.9894C116.469 37.0439 116.741 38.0088 117.068 39.1371L117.667 41.1836L117.978 41.1602L118.289 41.1369L118.764 39.6973C119.021 38.9036 119.27 38.1177 119.317 37.9465L119.394 37.6352L119.495 37.9854C119.55 38.1799 119.783 38.9737 120.025 39.7518L120.46 41.1758H120.756H121.052L121.526 39.674C121.791 38.8569 122.087 37.9154 122.196 37.5963C122.297 37.2773 122.382 36.9894 122.382 36.9505C122.382 36.9194 122.25 36.896 122.087 36.896H121.783L121.347 38.4679C121.106 39.3394 120.881 40.1642 120.842 40.3121C120.787 40.5611 120.764 40.5144 120.492 39.5728C120.336 39.0203 120.087 38.2033 119.947 37.752L119.69 36.9349L119.418 36.9116L119.145 36.8882L118.663 38.429C118.398 39.2771 118.157 40.0864 118.134 40.2187C118.103 40.3588 118.056 40.4755 118.025 40.4755C117.994 40.4755 117.947 40.3588 117.916 40.2187C117.885 40.0864 117.682 39.2771 117.465 38.429L117.068 36.896H116.772C116.585 36.896 116.469 36.9349 116.469 36.9894Z" fill="white"/>
<path d="M126.818 36.9585C126.818 36.9974 127.168 37.9467 127.596 39.0595L128.382 41.0982L128.187 41.464C128.016 41.8063 127.433 42.4289 127.106 42.6156C126.989 42.6856 126.981 42.7323 127.059 42.9502L127.145 43.1992L127.534 42.9891C128.335 42.5534 128.662 41.9697 129.759 39.0361C130.148 38.009 130.491 37.1063 130.522 37.0285C130.569 36.904 130.537 36.8885 130.234 36.9118L129.892 36.9351L129.339 38.5692C128.647 40.6391 128.709 40.4601 128.662 40.3201C128.647 40.2578 128.366 39.4641 128.055 38.5692L127.479 36.9351L127.145 36.9118C126.966 36.8962 126.818 36.9196 126.818 36.9585Z" fill="white"/>
<path d="M136.078 36.9894C136.086 37.0439 136.358 38.001 136.685 39.1137L137.292 41.1369L137.603 41.1602L137.914 41.1836L138.397 39.6818C138.661 38.8569 138.903 38.0632 138.926 37.9309C138.988 37.6275 139.074 37.6586 139.144 38.001C139.167 38.141 139.393 38.9192 139.634 39.7207L140.085 41.1836L140.389 41.1602L140.7 41.1369L141.338 39.1137C141.696 38.001 141.984 37.0439 141.992 36.9894C141.992 36.9349 141.883 36.896 141.719 36.896C141.385 36.896 141.424 36.8026 140.84 38.9425C140.521 40.1098 140.389 40.5144 140.35 40.3821C140.319 40.2809 140.078 39.4561 139.805 38.5457L139.315 36.8882L139.043 36.9116L138.77 36.9349L138.467 37.8687C138.303 38.3823 138.047 39.2071 137.907 39.6973C137.759 40.1876 137.642 40.5766 137.634 40.5533C137.619 40.4521 137.012 38.1099 136.856 37.5341L136.685 36.896H136.381C136.187 36.896 136.078 36.9349 136.078 36.9894Z" fill="white"/>
<path d="M97.5594 40.4756C97.4738 40.5612 97.4038 40.7168 97.4038 40.8257C97.4038 41.0592 97.6528 41.3315 97.8707 41.3315C98.0886 41.3315 98.3376 41.0592 98.3376 40.8257C98.3376 40.5923 98.0886 40.32 97.8707 40.32C97.7851 40.32 97.645 40.39 97.5594 40.4756Z" fill="white"/>
<path d="M99.3803 40.3822C99.2791 40.4522 99.1157 40.7402 99.1157 40.8647C99.1157 40.9892 99.4815 41.3315 99.6215 41.3315C99.8083 41.3315 100.049 41.0358 100.049 40.8024C100.049 40.4445 99.6526 40.1954 99.3803 40.3822Z" fill="white"/>
<path d="M101.038 40.4599C100.828 40.6855 100.867 41.0668 101.108 41.2302C101.295 41.347 101.334 41.347 101.52 41.2458C101.66 41.168 101.73 41.059 101.746 40.8723C101.793 40.4054 101.326 40.1408 101.038 40.4599Z" fill="white"/>
</svg>
